<?xml version="1.0" standalone="no"?>
<!DOCTYPE svg PUBLIC "-//W3C//DTD SVG 20010904//EN"
 "http://www.w3.org/TR/2001/REC-SVG-20010904/DTD/svg10.dtd">
<svg version="1.0" xmlns="http://www.w3.org/2000/svg"
 width="150.000000pt" height="150.000000pt" viewBox="0 0 150.000000 150.000000"
 preserveAspectRatio="xMidYMid meet">
<metadata>
Created by potrace 1.14, written by Peter Selinger 2001-2017
</metadata>
<g transform="translate(0.000000,150.000000) scale(0.100000,-0.100000)"
fill="#000000" stroke="none">
<path d="M218 1427 c-107 -36 -128 -51 -158 -111 -32 -66 -32 -63 80 -476 23
-85 43 -162 45 -171 2 -9 12 -47 23 -85 11 -38 38 -141 61 -229 51 -195 72
-242 126 -272 52 -29 100 -29 201 2 117 36 162 79 180 169 3 21 34 86 67 144
61 106 69 111 81 51 11 -58 80 -296 92 -322 20 -37 81 -75 129 -80 39 -4 171
30 228 59 38 20 76 81 83 134 5 35 -3 79 -35 197 -23 84 -44 160 -46 170 -3
16 -24 91 -55 203 -50 177 -72 273 -75 319 -2 33 -13 73 -29 103 -14 27 -26
56 -26 64 0 13 -33 78 -52 101 -16 20 -79 45 -113 45 -52 0 -201 -50 -235 -78
-35 -30 -59 -72 -65 -114 -2 -15 -33 -79 -68 -140 l-66 -112 -11 43 c-6 24
-15 58 -20 74 -5 17 -21 74 -35 129 -32 123 -46 150 -93 180 -59 38 -103 39
-214 3z"/>
</g>
</svg>
