<?xml version="1.0" encoding="utf-8"?><svg viewBox="0 0 48 40" xmlns="http://www.w3.org/2000/svg" xmlns:xlink="http://www.w3.org/1999/xlink"><style>:root>svg{display:none}:root>svg:target{display:block}</style><svg viewBox="0 0 48 38" id="card-icon1" xmlns="http://www.w3.org/2000/svg"><path d="M18.067 33.72c.001.467.14.923.398 1.311l1.269 1.907c.388.587 1.274 1.06 1.977 1.06h4.58c.702 0 1.588-.473 1.977-1.06l1.268-1.907c.241-.396.38-.847.401-1.31v-2.846H18.063l.005 2.846zM23.959 0c-7.57.023-13.021 6.16-13.021 13.063a12.988 12.988 0 003.232 8.593c1.227 1.399 3.144 4.32 3.875 6.786 0 .021.006.04.009.058h11.892c0-.018.006-.037.009-.058.73-2.465 2.648-5.387 3.875-6.786a12.988 12.988 0 003.233-8.593c0-7.227-5.87-13.086-13.104-13.063zM24 7.125a5.944 5.944 0 00-5.938 5.938 1.188 1.188 0 01-2.375 0A8.322 8.322 0 0124 4.75a1.188 1.188 0 010 2.375zM8.562 14.25a1.782 1.782 0 00-1.78-1.781h-4.75a1.781 1.781 0 000 3.562h4.75a1.781 1.781 0 001.78-1.78zm37.408-1.78h-4.75a1.782 1.782 0 000 3.562h4.75a1.781 1.781 0 100-3.562zM9.98 4.1L5.865 1.722a1.78 1.78 0 10-1.78 3.085l4.112 2.375A1.781 1.781 0 109.98 4.098zm33.937 19.593l-4.113-2.375a1.78 1.78 0 10-1.782 3.085l4.114 2.375a1.781 1.781 0 001.78-3.085zm-35.72-2.376l-4.113 2.375a1.782 1.782 0 101.781 3.085l4.114-2.375a1.782 1.782 0 00-1.782-3.085zM38.913 7.422c.313 0 .62-.082.891-.239l4.113-2.375a1.781 1.781 0 00-1.78-3.085l-4.114 2.375a1.781 1.781 0 00.89 3.324z"/></svg><svg viewBox="0 0 45 40" id="card-icon2" xmlns="http://www.w3.org/2000/svg"><path d="M41.78 8.756V5.973h1.739c.576 0 1.044-.468 1.044-1.044V1.45c0-.576-.468-1.044-1.044-1.044h-3.48c-.576 0-1.043.468-1.043 1.044v1.74H5.598V1.45C5.598.874 5.13.406 4.554.406H1.075C.499.406.031.874.031 1.45v3.479c0 .576.468 1.044 1.044 1.044h1.74v27.832h-1.74c-.576 0-1.044.467-1.044 1.043v3.48c0 .576.468 1.043 1.044 1.043h3.479c.576 0 1.044-.467 1.044-1.044v-1.74h33.398v1.74c0 .577.467 1.044 1.044 1.044h3.479c.576 0 1.044-.467 1.044-1.044v-3.479c0-.576-.468-1.043-1.044-1.043h-1.74V8.755zM8.38 21.628V9.8c0-.577.468-1.044 1.045-1.044h14.611c.577 0 1.044.467 1.044 1.044v11.828c0 .577-.467 1.044-1.044 1.044H9.425a1.044 1.044 0 01-1.044-1.044zm27.833 8.35c0 .576-.467 1.043-1.044 1.043H20.557a1.044 1.044 0 01-1.043-1.043v-4.523h6.262a2.087 2.087 0 002.087-2.087v-6.262h7.306c.577 0 1.044.467 1.044 1.043v11.829z"/></svg><svg viewBox="0 0 45 34" id="card-icon3" xmlns="http://www.w3.org/2000/svg"><path d="M.031 9.545v-1.31c0-1.085.935-1.964 2.088-1.964h31.31V2.34c0-1.749 2.253-2.622 3.564-1.389l6.958 6.55a1.884 1.884 0 010 2.777l-6.958 6.55c-1.306 1.228-3.563.366-3.563-1.39v-3.93H2.119C.966 11.51.03 10.63.03 9.546zm42.444 12.443h-31.31v-3.93c0-1.744-2.25-2.626-3.564-1.389L.643 23.218a1.884 1.884 0 000 2.778l6.958 6.55c1.307 1.23 3.563.365 3.563-1.39v-3.93h31.311c1.153 0 2.087-.879 2.087-1.964v-1.31c0-1.085-.934-1.964-2.087-1.964z"/></svg><svg viewBox="0 0 36 32" id="chat-icon" xmlns="http://www.w3.org/2000/svg"><path d="M18 .415C8.162.415.188 6.892.188 14.887c0 3.45 1.49 6.61 3.966 9.093-.87 3.507-3.778 6.631-3.813 6.666a.553.553 0 00-.104.605c.09.209.285.334.508.334 4.613 0 8.07-2.212 9.783-3.576A21.21 21.21 0 0018 29.359c9.838 0 17.812-6.478 17.812-14.472C35.812 6.892 27.838.415 18 .415zm2.227 18.368a.56.56 0 01-.557.557H9.65a.558.558 0 01-.556-.557V17.67c0-.306.25-.557.557-.557H19.67c.306 0 .556.25.556.557v1.113zm6.679-6.68c0 .307-.25.557-.557.557H9.651a.558.558 0 01-.557-.556V10.99c0-.306.25-.556.557-.556h16.698c.306 0 .557.25.557.556v1.114z"/></svg><svg viewBox="0 0 19 21" id="data-icon" xmlns="http://www.w3.org/2000/svg"><path d="M18.523 3.134v1.841c0 1.623-4.041 2.947-9.023 2.947-4.982 0-9.023-1.324-9.023-2.947V3.134C.477 1.51 4.518.188 9.5.188c4.982 0 9.023 1.323 9.023 2.946zm0 4.143v4.144c0 1.623-4.041 2.946-9.023 2.946-4.982 0-9.023-1.323-9.023-2.946V7.277C2.415 8.612 5.963 9.234 9.5 9.234s7.085-.622 9.023-1.957zm0 6.446v4.143c0 1.623-4.041 2.947-9.023 2.947-4.982 0-9.023-1.324-9.023-2.947v-4.143c1.938 1.335 5.486 1.956 9.023 1.956s7.085-.621 9.023-1.956z"/></svg><svg viewBox="0 0 18 18" id="email-icon" xmlns="http://www.w3.org/2000/svg"><g clip-path="url(#fa)"><path d="M2.25 2.25h13.5a.75.75 0 01.75.75v12a.75.75 0 01-.75.75H2.25A.75.75 0 011.5 15V3a.75.75 0 01.75-.75zm6.795 6.512L4.236 4.678l-.971 1.144 5.79 4.916 5.686-4.92-.982-1.135-4.713 4.08h-.001z"/></g><defs><clipPath id="fa"><path d="M0 0h18v18H0z"/></clipPath></defs></svg><svg viewBox="0 0 28 28" id="facebook" xmlns="http://www.w3.org/2000/svg"><circle cx="14" cy="14" r="14"/><path d="M14.766 15.103v4.827H12.55v-4.827h-1.842v-1.957h1.842v-.712c0-2.644 1.104-4.034 3.44-4.034.717 0 .896.116 1.289.21v1.935c-.44-.077-.563-.12-1.02-.12-.541 0-.83.154-1.095.457-.265.303-.397.827-.397 1.578v.69h2.512l-.674 1.957h-1.838v-.004z"/></svg><svg viewBox="0 0 25 17" id="group-icon" xmlns="http://www.w3.org/2000/svg"><path d="M4.379 7.469c1.28 0 2.32-1.04 2.32-2.32 0-1.28-1.04-2.32-2.32-2.32-1.28 0-2.32 1.04-2.32 2.32 0 1.28 1.04 2.32 2.32 2.32zm16.242 0c1.28 0 2.32-1.04 2.32-2.32 0-1.28-1.04-2.32-2.32-2.32-1.28 0-2.32 1.04-2.32 2.32 0 1.28 1.04 2.32 2.32 2.32zm1.16 1.16h-2.32c-.638 0-1.215.257-1.635.674a5.303 5.303 0 012.723 3.966h2.392c.642 0 1.16-.518 1.16-1.16v-1.16c0-1.28-1.04-2.32-2.32-2.32zm-9.281 0a4.058 4.058 0 004.06-4.06A4.058 4.058 0 0012.5.507a4.058 4.058 0 00-4.06 4.06 4.058 4.058 0 004.06 4.06zm2.784 1.16h-.3a5.711 5.711 0 01-2.484.58 5.724 5.724 0 01-2.483-.58h-.301a4.178 4.178 0 00-4.177 4.177v1.044c0 .96.78 1.74 1.74 1.74h10.442c.96 0 1.74-.78 1.74-1.74v-1.044a4.178 4.178 0 00-4.177-4.177zm-8.11-.486A2.314 2.314 0 005.54 8.63H3.22C1.94 8.63.9 9.67.9 10.95v1.16c0 .642.518 1.16 1.16 1.16h2.389a5.317 5.317 0 012.726-3.966z"/></svg><svg viewBox="0 0 28 28" id="instagram" xmlns="http://www.w3.org/2000/svg"><circle cx="14" cy="14" r="14"/><path d="M17.29 19.106h-6.58a1.655 1.655 0 01-1.651-1.652v-6.579c0-.909.742-1.651 1.651-1.651h6.58c.908 0 1.65.742 1.65 1.651v6.58a1.65 1.65 0 01-1.65 1.651z"/><path d="M14.001 16.704a2.52 2.52 0 01-1.793-.743 2.52 2.52 0 01-.743-1.794c0-.677.264-1.315.742-1.793a2.52 2.52 0 011.794-.743 2.52 2.52 0 011.794.743 2.52 2.52 0 01.743 1.793 2.52 2.52 0 01-.743 1.794 2.527 2.527 0 01-1.794.743zm0-4.533a1.998 1.998 0 000 3.993c1.1 0 1.997-.893 1.997-1.997a2.003 2.003 0 00-1.997-1.996zm3.033-.625a.487.487 0 100-.974.487.487 0 000 .974z"/></svg><svg viewBox="0 0 28 28" id="linkedin" xmlns="http://www.w3.org/2000/svg"><circle cx="14" cy="14" r="14"/><path d="M10.839 12.191h-2.41v7.683h2.41v-7.683zm6.513-.167a4.288 4.288 0 00-.278-.022 2.811 2.811 0 00-2.376 1.088c-.072.094-.105.15-.105.15v-1.027h-2.304v7.682h2.409v-3.608c0-.522-.039-1.077.222-1.554.222-.4.622-.6 1.072-.6 1.332 0 1.36 1.205 1.36 1.316v4.48h2.409v-5.013c0-1.715-.872-2.726-2.41-2.892zm-7.719-.827a1.399 1.399 0 100-2.798 1.399 1.399 0 000 2.798z"/></svg><svg viewBox="0 0 18 18" id="phone-icon" xmlns="http://www.w3.org/2000/svg"><g clip-path="url(#ka)"><path d="M15.75 12.315v2.652a.75.75 0 01-.697.748c-.328.023-.596.035-.803.035-6.628 0-12-5.372-12-12 0-.207.011-.475.034-.803a.75.75 0 01.749-.697h2.652a.375.375 0 01.374.337c.017.173.032.31.047.414.15 1.04.455 2.052.907 3.001.07.15.024.33-.11.426l-1.62 1.156a9.785 9.785 0 005.134 5.133l1.155-1.616a.347.347 0 01.43-.111 10.424 10.424 0 003.412.951.375.375 0 01.337.374h-.001z"/></g><defs><clipPath id="ka"><path d="M0 0h18v18H0z"/></clipPath></defs></svg><svg viewBox="0 0 28 28" id="pinterest" xmlns="http://www.w3.org/2000/svg"><circle cx="14" cy="14" r="14"/><path fill-rule="evenodd" clip-rule="evenodd" d="M13.155 16.28c.365.012.695.494 1.66.494 1.813.012 3.061-1.377 3.45-3.202 1.354-6.322-7.865-6.829-8.807-1.625-.223 1.225.142 2.638 1.095 3.097.73.353.777-.66.554-1.095-.99-1.931.2-3.674 1.754-4.168 1.46-.471 2.496-.082 3.285.73 1.012 1.048.553 3.897-.648 4.804-.424.318-1.2.388-1.601.011-.824-.765.447-2.39.259-3.579-.188-1.177-2.049-1-2.143.73-.047.883.212 1.142.012 2.025-.318 1.413-1.283 4.297-.6 5.428 1-.471 1.495-3.297 1.73-3.65z"/></svg><svg viewBox="0 0 21 26" id="play-icon" xmlns="http://www.w3.org/2000/svg"><path d="M12.6 4.2c4.63 0 8.4 3.768 8.4 8.404C21 17.231 17.23 21 12.6 21c-4.63 0-8.4-3.768-8.4-8.395C4.2 7.968 7.97 4.2 12.6 4.2zm-.957 5.065c-.178 0-.348.04-.51.121a1.05 1.05 0 00-.454.503 5.414 5.414 0 00-.146.591c-.09.478-.138 1.256-.138 2.115 0 .82.048 1.564.121 2.05.008.009.098.552.195.738.178.34.527.551.9.551h.032c.243-.008.754-.219.754-.227.86-.356 2.554-1.467 3.235-2.204l.049-.049c.09-.089.203-.227.227-.259.13-.17.194-.38.194-.59 0-.237-.072-.455-.21-.634-.033-.032-.154-.17-.268-.283-.665-.713-2.4-1.88-3.308-2.237-.138-.056-.486-.178-.673-.186z"/><path fill-rule="evenodd" clip-rule="evenodd" d="M12.6 0C5.64 0 0 5.641 0 12.6c0 6.958 5.641 12.599 12.6 12.599v-1.68c-6.031 0-10.92-4.889-10.92-10.92 0-6.03 4.889-10.92 10.92-10.92V0z"/></svg><svg viewBox="0 0 31 33" id="protection-icon" xmlns="http://www.w3.org/2000/svg"><path d="M28.235 6.009l-11.69-4.871a2.932 2.932 0 00-2.247 0L2.607 6.008A2.92 2.92 0 00.805 8.707c0 12.087 6.971 20.44 13.486 23.156a2.932 2.932 0 002.247 0c5.218-2.173 13.493-9.681 13.493-23.156a2.923 2.923 0 00-1.796-2.697z"/></svg><svg viewBox="0 0 32 32" id="smile-icon" xmlns="http://www.w3.org/2000/svg"><path d="M16.128.746C7.631.746.746 7.63.746 16.128s6.885 15.383 15.382 15.383c8.498 0 15.383-6.885 15.383-15.383 0-8.497-6.885-15.382-15.383-15.382zm4.963 10.42c1.098 0 1.985.887 1.985 1.985a1.983 1.983 0 01-1.985 1.985 1.983 1.983 0 01-1.985-1.985c0-1.098.887-1.985 1.985-1.985zm-9.925 0c1.098 0 1.985.887 1.985 1.985a1.983 1.983 0 01-1.985 1.985 1.983 1.983 0 01-1.985-1.985c0-1.098.887-1.985 1.985-1.985zM23.25 21.723a9.241 9.241 0 01-7.12 3.337 9.241 9.241 0 01-7.121-3.337c-.844-1.01.682-2.276 1.526-1.271a7.248 7.248 0 005.594 2.617 7.268 7.268 0 005.595-2.617c.832-1.005 2.364.26 1.526 1.271z"/></svg><svg viewBox="0 0 16 15" id="star-icon" xmlns="http://www.w3.org/2000/svg"><path d="M8 0l2.21 4.958 5.398.57-4.032 3.634 1.126 5.31L8 11.76l-4.702 2.712 1.126-5.31L.392 5.528l5.398-.57L8 0z"/></svg><svg viewBox="0 0 28 28" id="twitter" xmlns="http://www.w3.org/2000/svg"><circle cx="14" cy="14" r="14"/><path d="M8.398 17.69c1.22.068 2.285-.217 3.325-.971-1.05-.18-1.778-.66-2.174-1.652.306-.042.575.037.892-.09-1.035-.454-1.705-1.134-1.731-2.311.327.026.575.243.965.211-.95-.929-1.24-1.942-.643-3.171.992 1.14 2.153 1.915 3.572 2.28.08.02.153.041.232.057.364.085.797.264 1.019.238.38-.048 0-.486.095-1.056.3-1.773 2.253-2.58 3.699-1.54.422.305.755.3 1.171.116.217-.095.438-.19.697-.301-.058.506-.449.786-.76 1.16.354.08.639-.02.966-.126-.111.364-.385.57-.633.77-.259.206-.36.423-.37.76-.158 5.114-5.968 9.066-9.942 5.921-.385-.306-.01 0-.38-.295z"/></svg><svg viewBox="0 0 28 28" id="youtube" xmlns="http://www.w3.org/2000/svg"><circle cx="14" cy="14" r="14"/><path d="M19.193 18.94H9.31c-1.323 0-2.388-1.169-2.388-2.607v-4.666c0-1.445 1.07-2.608 2.388-2.608h9.883c1.322 0 2.388 1.17 2.388 2.608v4.666c.005 1.444-1.066 2.608-2.388 2.608z"/><path d="M16.841 13.928l-4.157-2.398v4.795l4.157-2.397z"/></svg></svg>